<?xml version="1.0" standalone="no"?>
<!DOCTYPE svg PUBLIC "-//W3C//DTD SVG 20010904//EN"
 "http://www.w3.org/TR/2001/REC-SVG-20010904/DTD/svg10.dtd">
<svg version="1.0" xmlns="http://www.w3.org/2000/svg"
 width="512.000000pt" height="512.000000pt" viewBox="0 0 512.000000 512.000000"
 preserveAspectRatio="xMidYMid meet">
<metadata>
Created by potrace 1.11, written by Peter Selinger 2001-2013
</metadata>
<g transform="translate(0.000000,512.000000) scale(0.100000,-0.100000)"
fill="#000000" stroke="none">
<path d="M0 2560 l0 -2560 2560 0 2560 0 0 2560 0 2560 -2560 0 -2560 0 0
-2560z m4798 63 c-134 -134 -247 -243 -253 -243 -49 0 -1589 436 -1816 514
-22 8 -39 11 -39 7 0 -4 78 -81 172 -172 95 -90 365 -355 601 -589 l428 -424
-228 -228 -228 -228 -767 767 -768 768 -250 -250 -250 -250 767 -767 768 -768
-238 -237 -237 -238 -768 768 -767 767 -225 -225 -225 -225 -190 190 -190 190
955 955 c525 525 960 955 967 955 7 0 227 -59 490 -131 751 -205 1031 -285
1261 -361 68 -22 125 -38 128 -35 2 2 -37 39 -87 82 -92 79 -1121 1089 -1128
1107 -2 6 97 111 220 234 l224 224 957 -957 958 -958 -242 -242z"/>
</g>
</svg>
