<?xml version="1.0" standalone="no"?>
<!DOCTYPE svg PUBLIC "-//W3C//DTD SVG 20010904//EN"
 "http://www.w3.org/TR/2001/REC-SVG-20010904/DTD/svg10.dtd">
<svg version="1.0" xmlns="http://www.w3.org/2000/svg"
 width="512.000000pt" height="512.000000pt" viewBox="0 0 512.000000 512.000000"
 preserveAspectRatio="xMidYMid meet">
<metadata>
Created by potrace 1.11, written by Peter Selinger 2001-2013
</metadata>
<g transform="translate(0.000000,512.000000) scale(0.100000,-0.100000)"
fill="#000000" stroke="none">
<path d="M0 2560 l0 -2560 2560 0 2560 0 0 2560 0 2560 -2560 0 -2560 0 0
-2560z m4785 90 c-126 -126 -236 -230 -244 -230 -8 0 -263 63 -565 141 -531
135 -1190 304 -1231 316 -11 2 235 -251 548 -564 312 -312 567 -573 567 -578
0 -6 -101 -111 -225 -235 l-225 -225 -768 768 c-422 422 -771 767 -777 767
-12 0 -475 -462 -475 -475 0 -5 345 -355 767 -777 l767 -768 -234 -235 c-129
-129 -239 -235 -245 -235 -5 0 -352 342 -770 760 -418 418 -767 760 -775 760
-8 0 -104 -89 -212 -197 l-198 -198 -188 188 -187 187 921 921 920 920 914
-240 c503 -132 917 -238 919 -235 3 3 -255 265 -572 582 l-577 577 227 228
228 227 960 -960 960 -960 -230 -230z"/>
</g>
</svg>
