<?xml version="1.0" standalone="no"?>
<!DOCTYPE svg PUBLIC "-//W3C//DTD SVG 20010904//EN"
 "http://www.w3.org/TR/2001/REC-SVG-20010904/DTD/svg10.dtd">
<svg version="1.0" xmlns="http://www.w3.org/2000/svg"
 width="512.000000pt" height="512.000000pt" viewBox="0 0 512.000000 512.000000"
 preserveAspectRatio="xMidYMid meet">
<metadata>
Created by potrace 1.11, written by Peter Selinger 2001-2013
</metadata>
<g transform="translate(0.000000,512.000000) scale(0.100000,-0.100000)"
fill="#000000" stroke="none">
<path d="M0 2560 l0 -2560 2560 0 2560 0 0 2560 0 2560 -2560 0 -2560 0 0
-2560z m4090 1285 l955 -955 -245 -245 -245 -245 -35 10 c-726 193 -1660 459
-1794 510 -16 6 -31 9 -33 6 -3 -2 60 -66 139 -142 260 -251 1048 -1039 1048
-1049 0 -13 -432 -445 -445 -445 -5 0 -352 342 -770 760 -418 418 -764 760
-770 760 -6 0 -120 -110 -255 -245 l-245 -245 770 -770 770 -770 -230 -230
c-126 -126 -234 -230 -240 -230 -6 0 -352 342 -770 760 -418 418 -764 760
-770 760 -5 0 -110 -100 -232 -222 l-223 -223 -185 185 c-102 102 -185 189
-185 195 0 5 429 439 953 963 l953 953 479 -131 c650 -178 1044 -290 1243
-355 91 -30 168 -53 169 -51 2 2 -63 63 -144 137 -82 73 -359 343 -616 598
l-468 465 223 223 c123 123 227 223 233 223 5 0 440 -430 965 -955z"/>
</g>
</svg>
